<svg width="45" height="37" viewBox="0 0 45 37" fill="none" xmlns="http://www.w3.org/2000/svg">
<path opacity="0.5" d="M37.5988 22.0698C37.5988 22.0698 38.0517 27.6766 33.4127 31.4721C32.87 31.9146 30.5713 27.9843 31.114 27.4243C31.6567 26.8643 33.7584 26.3354 35.0443 23.1241L37.5988 22.0698Z" fill="#FBFBFB"/>
<g opacity="0.1">
<path d="M35.1618 23.297C34.9374 24.2151 34.4734 25.0573 33.8171 25.7374C33.0793 26.4938 32.2688 27.1758 31.3974 27.7734C31.3936 27.7779 31.3912 27.7834 31.3907 27.7893C31.3903 27.7952 31.3917 27.801 31.3948 27.8061C31.3978 27.8111 31.4024 27.815 31.4079 27.8172C31.4134 27.8194 31.4194 27.8198 31.4251 27.8184C33.2468 26.9023 34.8542 25.3814 35.2275 23.3073C35.2289 23.2986 35.2267 23.2897 35.2215 23.2826C35.2163 23.2755 35.2085 23.2707 35.1998 23.2693C35.1911 23.268 35.1822 23.2701 35.1751 23.2753C35.168 23.2805 35.1632 23.2883 35.1618 23.297Z" fill="#263238"/>
<path d="M37.2531 22.5087C37.1647 24.0443 36.7561 25.5443 36.0536 26.9126C35.3287 28.3771 34.4216 29.7441 33.3539 30.9812C33.3524 30.983 33.3511 30.9851 33.3504 30.9874C33.3496 30.9897 33.3493 30.9921 33.3494 30.9945C33.3496 30.9969 33.3502 30.9993 33.3513 31.0014C33.3524 31.0036 33.3539 31.0055 33.3557 31.0071C33.3575 31.0087 33.3596 31.0099 33.3619 31.0107C33.3642 31.0115 33.3666 31.0118 33.369 31.0116C33.3714 31.0114 33.3737 31.0108 33.3759 31.0097C33.3781 31.0087 33.38 31.0072 33.3816 31.0054C34.3128 30.092 35.1257 29.0654 35.8013 27.9496C36.4246 26.889 36.8685 25.7327 37.1149 24.5275C37.2438 23.861 37.311 23.1841 37.3153 22.5053C37.3084 22.4707 37.2531 22.4742 37.2531 22.5087Z" fill="#263238"/>
<path d="M35.5075 23.2623C35.2735 24.3846 34.7916 25.4404 34.0971 26.3526C33.4349 27.2568 32.6153 28.0343 31.6774 28.6479C31.6498 28.6479 31.6774 28.6997 31.7016 28.6859C32.728 28.1405 33.6096 27.3585 34.2734 26.4045C34.597 25.9477 34.8684 25.4561 35.0823 24.9388C35.2883 24.398 35.4524 23.8421 35.5732 23.2761C35.5741 23.2718 35.5741 23.2674 35.5733 23.263C35.5725 23.2587 35.5708 23.2546 35.5684 23.2509C35.566 23.2472 35.5629 23.244 35.5593 23.2415C35.5556 23.239 35.5516 23.2373 35.5472 23.2364C35.5429 23.2355 35.5385 23.2354 35.5341 23.2362C35.5298 23.237 35.5257 23.2387 35.522 23.2411C35.5183 23.2435 35.5151 23.2466 35.5126 23.2503C35.5101 23.2539 35.5084 23.258 35.5075 23.2623Z" fill="#263238"/>
<path d="M36.7554 22.806C36.6285 23.5132 36.4376 24.2074 36.185 24.8801C35.9496 25.5488 35.6678 26.2002 35.3416 26.8296C34.6917 28.1011 33.8328 29.2544 32.8009 30.2414C32.8009 30.2414 32.8009 30.2725 32.8216 30.2587C33.8851 29.2917 34.7841 28.1581 35.4833 26.9022C35.8239 26.2841 36.1073 25.6361 36.3302 24.9665C36.5442 24.2678 36.7037 23.5536 36.8072 22.8302C36.8141 22.7853 36.7588 22.7714 36.7554 22.806Z" fill="#263238"/>
<path d="M36.0536 23.2347C35.9135 23.8453 35.7191 24.4423 35.4729 25.0184C35.2428 25.5938 34.9713 26.1518 34.6606 26.688C34.0292 27.7635 33.2364 28.7358 32.31 29.5709C32.31 29.5709 32.31 29.602 32.3273 29.5916C33.2885 28.8 34.1069 27.8494 34.747 26.7813C35.0766 26.242 35.3566 25.6739 35.5835 25.084C35.7996 24.4852 35.9683 23.8703 36.0882 23.2451C36.0846 23.2395 36.0792 23.2354 36.0728 23.2335C36.0665 23.2316 36.0597 23.232 36.0536 23.2347Z" fill="#263238"/>
</g>
<path opacity="0.5" d="M33.468 22.443C33.468 22.443 30.9032 27.4518 24.961 28.233C24.2697 28.3264 24.3803 23.7739 25.1339 23.5837C25.8874 23.3936 27.958 24.0504 30.7407 21.9937L33.468 22.443Z" fill="#FBFBFB"/>
<g opacity="0.1">
<path d="M30.7372 22.1976C30.0679 22.8653 29.2326 23.3426 28.3175 23.5803C27.2875 23.8341 26.2351 23.9869 25.1754 24.0366C25.1701 24.0385 25.1655 24.0421 25.1623 24.0467C25.1591 24.0513 25.1573 24.0568 25.1573 24.0625C25.1573 24.0681 25.1591 24.0736 25.1623 24.0783C25.1655 24.0829 25.1701 24.0864 25.1754 24.0884C27.2045 24.2682 29.3718 23.8188 30.7753 22.2494C30.7787 22.2469 30.7816 22.2438 30.7837 22.2402C30.7859 22.2366 30.7874 22.2326 30.788 22.2284C30.7887 22.2242 30.7885 22.22 30.7875 22.2159C30.7865 22.2118 30.7847 22.2079 30.7822 22.2045C30.7797 22.2011 30.7765 22.1982 30.7729 22.196C30.7693 22.1938 30.7653 22.1924 30.7611 22.1917C30.757 22.1911 30.7527 22.1913 30.7486 22.1923C30.7445 22.1933 30.7407 22.1951 30.7372 22.1976Z" fill="#263238"/>
<path d="M32.9426 22.6332C32.0603 23.8919 30.924 24.9517 29.6069 25.7442C28.2192 26.6083 26.7279 27.2935 25.1685 27.7837C25.1639 27.7837 25.1595 27.7855 25.1562 27.7888C25.153 27.792 25.1512 27.7964 25.1512 27.801C25.1512 27.8056 25.153 27.81 25.1562 27.8132C25.1595 27.8165 25.1639 27.8183 25.1685 27.8183C26.4393 27.5285 27.669 27.0814 28.8291 26.4874C30.5273 25.6016 31.959 24.2796 32.9772 22.6574C33.0083 22.6297 32.9634 22.6055 32.9426 22.6332Z" fill="#263238"/>
<path d="M31.0518 22.3497C30.2617 23.1808 29.2955 23.8245 28.2242 24.2336C27.1815 24.6539 26.0712 24.8811 24.9472 24.9042C24.9408 24.9042 24.9347 24.9067 24.9301 24.9113C24.9256 24.9158 24.923 24.922 24.923 24.9284C24.923 24.9348 24.9256 24.941 24.9301 24.9455C24.9347 24.95 24.9408 24.9526 24.9472 24.9526C26.6742 25.0502 28.3825 24.5524 29.7866 23.5422C30.2463 23.1908 30.6785 22.8048 31.0795 22.3877C31.114 22.3635 31.0725 22.3255 31.0518 22.3497Z" fill="#263238"/>
<path d="M32.3619 22.6262C31.883 23.1569 31.3578 23.6439 30.7925 24.0815C30.2438 24.5235 29.6664 24.9289 29.0642 25.2948C27.8417 26.0319 26.5054 26.561 25.1097 26.8607C25.1097 26.8607 25.1097 26.8883 25.1097 26.8849C26.5234 26.6221 27.8847 26.1305 29.1402 25.4296C29.751 25.0822 30.3295 24.6808 30.8686 24.2301C31.4187 23.7474 31.9318 23.224 32.4034 22.6642C32.4241 22.6366 32.3965 22.5985 32.3619 22.6262Z" fill="#263238"/>
<path d="M31.5427 22.6194C31.101 23.0651 30.621 23.4711 30.1082 23.8327C29.6103 24.2018 29.0858 24.5334 28.5388 24.8248C27.4357 25.4061 26.2502 25.8153 25.0233 26.0381C25.0233 26.0381 25.0233 26.0658 25.0233 26.0658C26.2685 25.9079 27.4767 25.5348 28.5941 24.9631C29.1584 24.6789 29.6953 24.3433 30.198 23.9606C30.6921 23.5653 31.1544 23.1319 31.5807 22.6643C31.5867 22.6593 31.5904 22.6521 31.591 22.6443C31.5917 22.6365 31.5892 22.6288 31.5842 22.6229C31.5791 22.6169 31.5719 22.6132 31.5642 22.6125C31.5564 22.6119 31.5487 22.6144 31.5427 22.6194Z" fill="#263238"/>
</g>
<path opacity="0.5" d="M34.1248 5.01776C34.1248 5.01776 32.794 2.10029 31.6256 1.17043C30.4572 0.240567 22.1922 -0.537197 21.5181 0.479081C20.844 1.49536 23.6129 2.73633 23.8963 4.01877C24.1798 5.30122 23.0978 6.71502 22.925 7.85574C22.7522 8.99646 22.887 11.6581 22.887 11.6581L34.1248 5.01776Z" fill="#FBFBFB"/>
<g opacity="0.1">
<path d="M24.1176 6.6009C24.4165 6.00559 24.5884 5.35462 24.6223 4.68934C24.631 4.10519 24.4298 3.53731 24.0554 3.08887C23.6422 2.61509 23.1652 2.20095 22.6381 1.85828V1.87902C23.568 2.58764 24.6154 3.4622 24.3665 4.77575C24.198 5.42478 23.9665 6.05575 23.6751 6.65966C23.4346 7.25225 23.3035 7.8835 23.288 8.52284C23.2962 9.29609 23.3597 10.0678 23.4781 10.8319C23.4781 10.8665 23.5369 10.8665 23.5334 10.8319C23.466 10.1157 23.466 9.39466 23.5334 8.6784C23.6169 7.95933 23.8141 7.25809 24.1176 6.6009Z" fill="black"/>
<path d="M33.513 4.88283C33.036 4.0947 32.5624 3.30311 32.0819 2.51497C31.8992 2.1597 31.6828 1.82284 31.4355 1.50906C31.186 1.2518 30.8661 1.07385 30.516 0.997471C28.8121 0.560606 27.0621 0.328519 25.3033 0.306125C24.2796 0.270334 23.2548 0.310776 22.2371 0.427113C22.2129 0.427113 22.2129 0.468592 22.2371 0.468592C23.9574 0.414278 25.6792 0.491704 27.3877 0.700192C28.2449 0.814264 29.0918 0.976733 29.9387 1.15648C30.3203 1.21168 30.6903 1.32842 31.0345 1.50216C31.3583 1.74256 31.626 2.05038 31.8192 2.40436C32.3757 3.23052 32.9184 4.06705 33.4646 4.90012C33.4853 4.94506 33.5303 4.91394 33.513 4.88283Z" fill="black"/>
<path d="M25.1373 3.85628C24.903 3.30621 24.5375 2.82196 24.0726 2.44594C23.5265 2.01527 22.8985 1.70008 22.2267 1.51953C23.4193 1.94125 24.5635 2.74322 24.9437 4.00838C25.1002 4.64857 25.0775 5.31946 24.8781 5.9476C24.6837 6.58387 24.5472 7.23639 24.4702 7.89719C24.4273 8.66468 24.496 9.43432 24.6741 10.1821C24.6741 10.2167 24.7329 10.2028 24.726 10.1821C24.6009 9.41211 24.6091 8.62637 24.7502 7.85917C24.8711 7.16782 25.12 6.47648 25.2721 5.78513C25.4294 5.14385 25.3823 4.46945 25.1373 3.85628Z" fill="black"/>
<path d="M32.3584 5.474C31.9644 4.78266 31.6671 4.03601 31.2557 3.35157C30.9087 2.7397 30.3861 2.24601 29.7555 1.93432C28.2958 1.26985 26.7345 0.85616 25.1373 0.710635C24.2399 0.610971 23.3358 0.585535 22.4342 0.634587C22.4169 0.634587 22.4169 0.662241 22.4342 0.662241C24.0002 0.606802 25.5655 0.789798 27.0766 1.20495C27.8287 1.40605 28.5638 1.66611 29.275 1.98271C29.94 2.26713 30.5123 2.73166 30.9273 3.32392C31.1589 3.66959 31.3663 4.01526 31.5841 4.36094C31.8019 4.70661 32.0819 5.11105 32.3031 5.50166C32.3073 5.50808 32.3137 5.51274 32.321 5.51475C32.3284 5.51677 32.3363 5.51599 32.3431 5.51257C32.35 5.50914 32.3553 5.50332 32.3581 5.4962C32.361 5.48909 32.3611 5.48119 32.3584 5.474Z" fill="black"/>
<path d="M25.8909 5.03851C25.7923 4.41813 25.5739 3.82287 25.2479 3.28595C24.919 2.78464 24.4834 2.36209 23.9724 2.04845C23.379 1.68098 22.7366 1.39934 22.0643 1.21191C22.0643 1.21191 22.0643 1.21192 22.0643 1.2292C23.2154 1.66475 24.363 2.21437 25.0267 3.30323C25.6904 4.3921 25.718 5.65035 25.7906 6.85675C25.8286 7.66908 25.9151 8.48142 25.9496 9.29375C25.9481 9.29793 25.9476 9.30242 25.9481 9.30685C25.9487 9.31127 25.9503 9.3155 25.9529 9.31916C25.9554 9.32282 25.9588 9.32581 25.9628 9.32787C25.9667 9.32994 25.9711 9.33102 25.9756 9.33102C25.98 9.33102 25.9844 9.32994 25.9884 9.32787C25.9923 9.32581 25.9957 9.32282 25.9983 9.31916C26.0008 9.3155 26.0024 9.31127 26.003 9.30685C26.0036 9.30242 26.003 9.29793 26.0015 9.29375C25.9911 7.87303 26.1432 6.4454 25.8909 5.03851Z" fill="black"/>
<path d="M27.6365 6.37976C27.5379 5.74248 27.3408 5.12442 27.0523 4.54769C26.4437 3.33466 25.4624 2.34853 24.2524 1.73392C23.5212 1.36307 22.7545 1.06661 21.9641 0.848999C23.3051 1.24721 24.5324 1.95804 25.5452 2.92303C26.2237 3.63531 26.751 4.47746 27.0956 5.39883C27.4401 6.3202 27.5947 7.30174 27.5501 8.28441C27.5501 8.31553 27.5985 8.31898 27.602 8.28441C27.717 7.65564 27.7287 7.0123 27.6365 6.37976Z" fill="black"/>
<path d="M30.357 4.47156C29.9877 3.95229 29.5479 3.48693 29.0503 3.08887C27.9131 2.17976 26.5511 1.68544 25.1823 1.23607C24.3757 0.938839 23.5304 0.759548 22.6727 0.703735C24.1591 0.866201 25.5763 1.44347 26.9244 2.05877C28.0953 2.59018 29.1341 3.37399 29.9664 4.35404C30.4591 4.89634 30.868 5.50918 31.1797 6.17228C31.1797 6.20339 31.2488 6.17227 31.235 6.15499C30.999 5.56605 30.7049 5.00212 30.357 4.47156Z" fill="black"/>
<path d="M28.8706 5.14917C28.5624 4.59387 28.1798 4.08331 27.7333 3.63166C26.744 2.66871 25.5674 1.91924 24.2766 1.42973C23.5402 1.13819 22.7849 0.896826 22.0159 0.707275C24.5635 1.42973 27.0696 2.67761 28.5111 4.99707C28.9032 5.59537 29.2005 6.25065 29.3925 6.93975C29.3925 6.97086 29.4478 6.95703 29.4444 6.92247C29.3487 6.30461 29.1549 5.70598 28.8706 5.14917Z" fill="black"/>
</g>
<path opacity="0.5" d="M20.6436 13.8081C19.4787 14.0121 17.0659 15.2842 15.5898 14.4995C14.1138 13.7148 12.7761 12.1282 9.59242 12.0798C6.40877 12.0314 2.21922 14.6066 0 18.0703C0 18.0703 2.27452 15.3982 4.63201 15.9167C6.28087 16.2797 10.5084 21.3265 13.1459 21.3196C15.3202 21.3196 19.1848 19.1488 19.1848 19.1488C19.1848 19.1488 15.8733 21.6411 15.5691 24.0712C15.2649 26.5012 17.6051 30.9639 16.8412 33.0137C15.78 35.8586 11.8911 36.7089 11.8911 36.7089C11.8911 36.7089 15.8491 37.0097 19.9211 33.3628C23.9931 29.716 24.0312 26.7743 23.6751 25.0667C23.0909 22.2598 20.6747 19.3631 22.6381 17.8076L20.6436 13.8081Z" fill="#FBFBFB"/>
<g opacity="0.1">
<path d="M23.2603 27.0373C23.1896 26.2684 23.0152 25.5126 22.7418 24.7904C22.4964 24.0196 22.2475 23.2522 21.9778 22.4917C21.634 21.6692 21.4284 20.7956 21.3695 19.9061C21.3579 19.0758 21.6109 18.2634 22.0919 17.5866C22.1127 17.5589 22.0643 17.5313 22.0435 17.5589C21.6586 18.0946 21.3891 18.7043 21.2519 19.3495C21.1358 20.039 21.1628 20.745 21.3314 21.4236C21.6771 22.9687 22.2267 24.4586 22.6554 25.9761C22.8957 26.7006 22.9398 27.4758 22.7833 28.2229C22.5964 28.8999 22.3123 29.5461 21.9398 30.1414C21.2837 31.2469 20.4684 32.2497 19.5201 33.1177C18.4424 34.1009 17.2148 34.906 15.8836 35.5028C15.8491 35.5028 15.8836 35.5823 15.9113 35.565C18.2643 34.559 20.2873 32.9121 21.7497 30.812C22.5309 29.7093 23.3156 28.42 23.2603 27.0373Z" fill="black"/>
<path d="M21.2658 17.7214C20.1717 18.6386 19.1329 19.6197 18.1547 20.6596C17.689 21.1423 17.2668 21.6652 16.893 22.2221C16.5337 22.7888 16.3112 23.4314 16.2432 24.0991C15.939 26.9405 17.9128 29.5365 17.3355 32.3952C17.0462 33.7937 16.2354 35.0296 15.0679 35.8519C15.0679 35.8519 15.0679 35.8692 15.0679 35.8519C16.0325 35.1903 16.7833 34.2617 17.2283 33.1799C17.6955 31.9847 17.7918 30.6766 17.5049 29.4259C17.2249 27.9913 16.6994 26.6052 16.5819 25.143C16.512 24.4534 16.579 23.7568 16.779 23.0931C17.0301 22.4179 17.4014 21.7938 17.8747 21.2507C18.8811 19.9627 20.0265 18.7895 21.29 17.7525C21.2954 17.7531 21.3009 17.7522 21.3057 17.7497C21.3106 17.7472 21.3146 17.7434 21.3173 17.7386C21.32 17.7339 21.3212 17.7284 21.3208 17.723C21.3204 17.7176 21.3184 17.7124 21.315 17.7081C21.3117 17.7038 21.3071 17.7005 21.302 17.6988C21.2968 17.6971 21.2912 17.6969 21.286 17.6983C21.2807 17.6998 21.276 17.7027 21.2724 17.7068C21.2688 17.7109 21.2665 17.716 21.2658 17.7214Z" fill="black"/>
<path d="M21.3349 16.7846C19.5622 18.1714 17.5473 19.217 15.3928 19.868C14.3212 20.2137 13.1494 20.4799 12.026 20.2345C11.4681 20.0897 10.941 19.8449 10.4704 19.512C9.96231 19.1663 9.46108 18.8449 8.9564 18.513C7.77651 17.7318 6.60122 16.946 5.43054 16.1555C6.50674 16.916 7.57947 17.6811 8.64875 18.4508L10.2458 19.6053C10.6871 19.9545 11.1821 20.23 11.7114 20.4211C12.7934 20.7668 13.9756 20.5836 15.0402 20.2656C16.1188 19.9409 17.1613 19.5065 18.1513 18.9693C19.2807 18.3431 20.356 17.6239 21.366 16.8192C21.3709 16.8184 21.3755 16.8163 21.3794 16.8131C21.3832 16.8099 21.3861 16.8058 21.3877 16.8011C21.3894 16.7964 21.3897 16.7914 21.3887 16.7865C21.3878 16.7816 21.3855 16.7771 21.3822 16.7734C21.3788 16.7697 21.3746 16.767 21.3698 16.7655C21.3651 16.764 21.3601 16.7639 21.3552 16.765C21.3504 16.7662 21.346 16.7686 21.3424 16.772C21.3388 16.7755 21.3362 16.7799 21.3349 16.7846Z" fill="black"/>
<path d="M20.4639 14.5033C19.4724 15.1335 18.3485 15.5254 17.1802 15.6484C16.0119 15.7713 14.831 15.6219 13.7302 15.2119C12.6482 14.8109 11.6561 14.206 10.5742 13.7947C9.50922 13.3543 8.33333 13.2577 7.21077 13.5181C5.88339 13.8465 4.69428 14.5966 3.56738 15.3502C4.6044 14.6588 5.71401 13.9675 6.94115 13.6633C7.55139 13.4995 8.18729 13.4538 8.81469 13.5285C9.41103 13.6195 9.99238 13.7904 10.5431 14.0366C11.5801 14.4895 12.5791 15.0737 13.6541 15.4435C14.7311 15.8062 15.8753 15.9243 17.0037 15.7892C18.2446 15.6379 19.4362 15.2115 20.4915 14.5413C20.4933 14.537 20.4939 14.5322 20.4934 14.5275C20.4928 14.5229 20.491 14.5184 20.4883 14.5146C20.4855 14.5108 20.4818 14.5078 20.4775 14.5058C20.4733 14.5038 20.4686 14.5029 20.4639 14.5033Z" fill="black"/>
<path d="M20.7853 16.0588C19.7229 16.7702 18.6232 17.4245 17.491 18.0188C16.4195 18.5926 15.3098 19.1906 14.1069 19.4464C13.4637 19.5899 12.7979 19.6005 12.1504 19.4775C11.5583 19.3368 10.9963 19.091 10.4912 18.7516C9.5302 18.1467 8.63837 17.4415 7.6532 16.8746C6.6093 16.2233 5.42331 15.8343 4.19647 15.7408C6.61618 15.8894 8.48973 17.5763 10.3944 18.8968C10.88 19.2568 11.4253 19.5283 12.0052 19.6987C12.577 19.842 13.1716 19.8702 13.7543 19.7817C14.9761 19.5609 16.1425 19.1016 17.1869 18.4301C18.4347 17.7042 19.6377 16.9092 20.8337 16.1072C20.8401 16.1008 20.8437 16.0921 20.8437 16.083C20.8437 16.0739 20.8401 16.0652 20.8337 16.0588C20.8273 16.0524 20.8186 16.0488 20.8095 16.0488C20.8004 16.0488 20.7917 16.0524 20.7853 16.0588Z" fill="black"/>
<path d="M20.5399 15.115C18.5384 16.4321 16.0046 17.3204 13.5884 16.8987C12.3096 16.6845 11.0586 16.3285 9.85858 15.8375C8.81242 15.3751 7.68381 15.1282 6.54012 15.1116C5.27785 15.1086 4.03283 15.4047 2.9071 15.9758C2.9071 15.9758 2.9071 16.0069 2.9071 16C3.99317 15.4844 5.18243 15.2232 6.38457 15.236C7.59998 15.2825 8.79293 15.5778 9.88969 16.1037C11.0494 16.6021 12.2679 16.9506 13.5158 17.1407C14.6726 17.3178 15.8544 17.2304 16.9725 16.8849C18.242 16.4703 19.4509 15.8891 20.5675 15.1565C20.5986 15.1427 20.5675 15.0978 20.5399 15.115Z" fill="black"/>
<path d="M20.4534 15.4953C19.5824 16.1879 18.6191 16.7556 17.5913 17.1821C16.612 17.6896 15.5483 18.0141 14.4526 18.1397C12.5375 18.2883 10.944 17.1891 9.30204 16.3871C8.466 15.9415 7.54434 15.6799 6.59888 15.6197C8.47588 15.6992 10.0072 16.9575 11.6422 17.7283C12.4654 18.1498 13.3792 18.3635 14.3039 18.3505C15.3574 18.2675 16.3818 17.9649 17.3113 17.4621C18.4384 16.936 19.5037 16.2869 20.488 15.5264C20.4928 15.5251 20.4972 15.5225 20.5006 15.5189C20.5041 15.5154 20.5065 15.5109 20.5076 15.5061C20.5088 15.5013 20.5086 15.4962 20.5071 15.4915C20.5057 15.4867 20.5029 15.4825 20.4992 15.4791C20.4955 15.4758 20.491 15.4736 20.4861 15.4726C20.4813 15.4716 20.4762 15.472 20.4715 15.4736C20.4669 15.4753 20.4627 15.4781 20.4595 15.482C20.4563 15.4858 20.4542 15.4904 20.4534 15.4953Z" fill="black"/>
<path d="M20.4361 14.7831C19.9608 15.0661 19.4567 15.2979 18.9325 15.4745C18.4575 15.6472 17.9727 15.7915 17.4806 15.9066C16.4466 16.1458 15.3799 16.2101 14.3246 16.0967C13.306 15.9327 12.3104 15.6484 11.3588 15.2498C10.3757 14.8586 9.3423 14.6084 8.28919 14.5066C7.09827 14.4183 5.90133 14.5531 4.75988 14.9041C4.7426 14.9041 4.75988 14.9352 4.75988 14.9283C5.82574 14.6152 6.93955 14.4981 8.04722 14.5826C9.16097 14.7011 10.2505 14.9866 11.2793 15.4295C12.2162 15.848 13.2059 16.1364 14.2209 16.2868C15.2216 16.3841 16.2316 16.3104 17.2075 16.069C17.773 15.9358 18.3277 15.7602 18.8668 15.5436C19.406 15.3258 19.9038 15.0562 20.45 14.8212C20.4914 14.8142 20.4672 14.7624 20.4361 14.7831Z" fill="black"/>
<path d="M20.1631 14.1331C19.4949 14.4411 18.8008 14.6898 18.0891 14.8763C17.3941 15.1031 16.6499 15.1331 15.939 14.9627C14.7153 14.6171 13.6714 13.8324 12.5618 13.2344C11.4615 12.6013 10.199 12.3067 8.9322 12.3875C7.60914 12.5412 6.33283 12.9698 5.18511 13.6457C4.52833 13.9914 3.88538 14.3958 3.25626 14.8003C2.6567 15.1564 2.12339 15.6137 1.67999 16.1519C1.67999 16.1519 1.67999 16.1726 1.67999 16.1519C2.10063 15.6658 2.5995 15.2534 3.15602 14.9316C3.72292 14.586 4.30365 14.2403 4.88438 13.9257C6.07676 13.2353 7.3935 12.7866 8.75937 12.6053C9.43483 12.536 10.1172 12.5875 10.7746 12.7574C11.378 12.9347 11.9582 13.183 12.503 13.4971C13.5642 14.0778 14.6012 14.8003 15.7834 15.1183C16.4976 15.2848 17.2444 15.2453 17.937 15.0042C18.6901 14.7614 19.4297 14.4787 20.1527 14.1573C20.1533 14.1634 20.1559 14.1692 20.1601 14.1737C20.1643 14.1782 20.1699 14.1812 20.176 14.1821C20.182 14.1831 20.1883 14.182 20.1936 14.179C20.199 14.176 20.2033 14.1714 20.2057 14.1657C20.2081 14.16 20.2086 14.1537 20.207 14.1478C20.2055 14.1418 20.202 14.1366 20.1971 14.1328C20.1922 14.1291 20.1862 14.1271 20.18 14.1272C20.1739 14.1272 20.1679 14.1293 20.1631 14.1331Z" fill="black"/>
<path d="M21.3867 17.9218C20.4543 18.8006 19.5878 19.7469 18.7942 20.7529C18.0683 21.6862 17.4115 22.6956 17.2387 23.8881C16.8515 26.4772 18.3725 28.9039 18.1098 31.4929C17.9611 32.969 17.052 34.0993 16.1049 35.1744C16.8861 34.324 17.695 33.446 18.0545 32.326C18.414 31.206 18.2964 29.9063 18.0545 28.7276C17.7987 27.414 17.3942 26.1246 17.3631 24.78C17.3426 24.1304 17.4459 23.4829 17.6673 22.8719C17.8974 22.2963 18.1944 21.7499 18.5522 21.2437C19.3706 20.0399 20.3265 18.9355 21.4006 17.9529C21.4524 17.9357 21.4109 17.9011 21.3867 17.9218Z" fill="black"/>
<path d="M20.9201 25.8274C20.7714 24.7524 20.4569 23.7085 20.3151 22.6334C20.1734 21.5584 20.1699 20.3105 20.8198 19.3323C20.8371 19.3046 20.7887 19.277 20.7714 19.3046C20.3098 20.0963 20.071 20.9981 20.0801 21.9144C20.1189 22.9642 20.2684 24.007 20.526 25.0255C20.7747 26.0555 20.8541 27.1191 20.761 28.1746C20.6384 29.1478 20.3582 30.0947 19.9314 30.978C19.4432 31.9644 18.831 32.8844 18.1097 33.7157C18.1097 33.7157 18.1097 33.7503 18.1305 33.7364C19.4373 32.3537 20.3597 30.6532 20.806 28.8037C21.0195 27.8261 21.0582 26.8185 20.9201 25.8274Z" fill="black"/>
</g>
<path d="M42.8427 12.0624C42.8427 12.0624 39.7316 6.76674 34.1248 5.01764C28.518 3.26854 25.2272 6.76675 24.2973 8.4398C23.3675 10.1129 22.7937 13.3414 20.6297 13.8081C20.6297 13.8081 19.3542 15.609 19.4856 16.4629C19.6169 17.3167 21.9053 17.7972 21.9053 17.7972C21.9053 17.7972 23.4331 17.493 24.6015 19.4391C25.7699 21.3852 30.0804 26.3767 35.7909 24.8869C41.5015 23.3971 42.6111 16.9364 43.0812 15.6402C43.5513 14.3439 44.7819 13.0096 44.3809 12.097C43.9799 11.1844 42.8427 12.0624 42.8427 12.0624Z" fill="#FBFBFB"/>
<path d="M36.2991 15.3949C36.3725 15.686 36.5306 15.9487 36.7534 16.1499C36.9762 16.3511 37.2536 16.4817 37.5506 16.5252C37.8476 16.5686 38.1509 16.5231 38.422 16.3942C38.6931 16.2653 38.9199 16.059 39.0737 15.8012C39.2275 15.5434 39.3013 15.2458 39.286 14.946C39.2706 14.6462 39.1667 14.3578 38.9874 14.117C38.808 13.8763 38.5613 13.6942 38.2785 13.5937C37.9956 13.4932 37.6893 13.4789 37.3983 13.5525C37.205 13.6009 37.0231 13.6871 36.8631 13.806C36.7031 13.9249 36.5682 14.0742 36.4661 14.2454C36.3639 14.4166 36.2966 14.6063 36.268 14.8035C36.2393 15.0008 36.2499 15.2018 36.2991 15.3949Z" fill="#263238"/>
<path d="M38.4146 11.7895C37.9972 11.5999 37.5345 11.5327 37.0803 11.5959C36.618 11.6415 36.1704 11.7841 35.7668 12.0142C35.3556 12.248 35.007 12.5777 34.7505 12.9751C34.4951 13.3743 34.3278 13.8232 34.2596 14.2922C34.184 14.758 34.204 15.2343 34.3184 15.6921C34.4372 16.1487 34.6529 16.5743 34.951 16.94C35.2457 17.3003 35.6117 17.5957 36.026 17.8076C36.2314 17.9133 36.45 17.9912 36.6759 18.0392C36.903 18.0951 37.1402 18.0951 37.3672 18.0392C37.1454 18.0508 36.9237 18.0142 36.7174 17.9321C36.5131 17.8584 36.3182 17.761 36.1366 17.6417C35.7735 17.4056 35.4571 17.1044 35.2033 16.7533C34.9516 16.4107 34.7728 16.0201 34.6779 15.6057C34.5829 15.1917 34.5688 14.7633 34.6364 14.344C34.6949 13.9231 34.8358 13.5178 35.0512 13.1514C35.2723 12.7887 35.571 12.4794 35.9258 12.2458C36.2893 12.01 36.6938 11.8447 37.1184 11.7584C37.5464 11.662 37.9917 11.6727 38.4146 11.7895Z" fill="#263238"/>
<path d="M42.8427 12.0626C42.5556 12.239 42.3177 12.4851 42.1513 12.7781C41.9815 13.0529 41.8269 13.3368 41.6881 13.6285C41.5464 13.9119 41.415 14.1954 41.2629 14.4719C41.1161 14.7546 40.9485 15.0261 40.7617 15.2842C41.0566 15.1285 41.3128 14.9088 41.5118 14.6413C41.7118 14.3797 41.8844 14.0982 42.0269 13.8013C42.1721 13.5109 42.2896 13.2137 42.414 12.9233C42.5269 12.6224 42.6706 12.334 42.8427 12.0626Z" fill="#263238"/>
<path d="M33.2019 18.136C32.8562 18.454 31.1589 19.0486 30.2706 19.2387C28.6874 19.5843 25.8321 18.7374 25.4795 19.2698C25.127 19.8021 28.8257 24.4549 31.1002 23.8465C33.3747 23.2381 34.3011 19.8021 34.2976 19.6984C34.2976 19.6984 34.4325 18.734 34.0695 18.3814C33.9527 18.2778 33.814 18.202 33.6638 18.1595C33.5135 18.117 33.3556 18.1089 33.2019 18.136Z" fill="#FBFBFB"/>
</svg>
