<svg width="58" height="28" viewBox="0 0 58 28" fill="none" xmlns="http://www.w3.org/2000/svg">
<path d="M19.538 19.7363C18.5282 19.7582 17.5671 20.1746 16.8607 20.8965C16.1543 21.6184 15.7587 22.5882 15.7587 23.5983C15.7587 24.6083 16.1543 25.5782 16.8607 26.3C17.5671 27.0219 18.5282 27.4384 19.538 27.4602H20.3109V19.7363H19.538Z" fill="#263238"/>
<path d="M47.676 19.7372C47.1618 19.7261 46.6506 19.8178 46.1723 20.0069C45.694 20.196 45.2583 20.4786 44.8907 20.8384C44.5231 21.1981 44.2311 21.6276 44.0317 22.1017C43.8323 22.5757 43.7296 23.0849 43.7296 23.5992C43.7296 24.1135 43.8323 24.6226 44.0317 25.0967C44.2311 25.5708 44.5231 26.0003 44.8907 26.36C45.2583 26.7197 45.694 27.0024 46.1723 27.1915C46.6506 27.3806 47.1618 27.4722 47.676 27.4611H48.4471V19.7372H47.676Z" fill="#263238"/>
<path d="M34.9262 27.4584C37.0586 27.4584 38.7872 25.7298 38.7872 23.5974C38.7872 21.465 37.0586 19.7363 34.9262 19.7363C32.7938 19.7363 31.0652 21.465 31.0652 23.5974C31.0652 25.7298 32.7938 27.4584 34.9262 27.4584Z" fill="#263238"/>
<path d="M6.78649 27.4584C8.91889 27.4584 10.6475 25.7298 10.6475 23.5974C10.6475 21.465 8.91889 19.7363 6.78649 19.7363C4.65409 19.7363 2.92545 21.465 2.92545 23.5974C2.92545 25.7298 4.65409 27.4584 6.78649 27.4584Z" fill="#263238"/>
<path d="M39.1197 3.12793H24.4683V21.7433H39.1197V3.12793Z" fill="#407BFF"/>
<path opacity="0.2" d="M39.1197 3.12793H24.4683V21.7433H39.1197V3.12793Z" fill="black"/>
<path d="M53.9087 7.75691L53.7712 7.87402L54.3545 8.55861L54.4919 8.44149L53.9087 7.75691Z" fill="#407BFF"/>
<path d="M51.532 4.96294L51.3946 5.08008L53.2114 7.21186L53.3489 7.09472L51.532 4.96294Z" fill="#407BFF"/>
<path d="M39.1196 21.7415H57.316V13.6636C57.3163 13.0638 57.1024 12.4836 56.7128 12.0275L51.0513 5.37449C50.4511 4.66996 49.705 4.10419 48.8647 3.7163C48.0244 3.32841 47.1099 3.12766 46.1843 3.12793H39.1196V21.7415Z" fill="#407BFF"/>
<path d="M42.1011 12.8956V6.05116C42.1011 5.90373 42.1301 5.75775 42.1866 5.62157C42.2431 5.48539 42.3259 5.36168 42.4302 5.25752C42.5345 5.15336 42.6584 5.07079 42.7946 5.01453C42.9309 4.95828 43.0769 4.92945 43.2244 4.92969H44.9671C45.8791 4.92969 46.7804 5.12765 47.6085 5.50991C48.4366 5.89217 49.1719 6.44961 49.7636 7.14374L54.0454 12.1678C54.2174 12.3692 54.3121 12.6253 54.3127 12.8902C54.3127 13.1878 54.1946 13.4732 53.9843 13.6838C53.774 13.8944 53.4888 14.013 53.1912 14.0134H43.2244C42.9274 14.0134 42.6425 13.8958 42.432 13.6863C42.2215 13.4769 42.1025 13.1925 42.1011 12.8956Z" fill="white"/>
<path d="M57.3159 19.5416H55.0694C54.9479 19.5416 54.8286 19.5098 54.7232 19.4495C54.6178 19.3891 54.53 19.3022 54.4685 19.1975C54.407 19.0928 54.3739 18.9738 54.3726 18.8523C54.3712 18.7308 54.4016 18.6111 54.4608 18.5051L54.84 17.826C54.9 17.717 54.9881 17.626 55.0951 17.5625C55.2021 17.499 55.3242 17.4652 55.4486 17.4648H57.3159V19.5416Z" fill="white"/>
<path d="M35.8851 0H0.472961V21.7414H35.8851V0Z" fill="#407BFF"/>
<path opacity="0.6" d="M35.8851 0H0.472961V21.7414H35.8851V0Z" fill="white"/>
<path opacity="0.5" d="M16.0888 18.4277H10.0625V19.737H16.0888V18.4277Z" fill="#407BFF"/>
<path opacity="0.5" d="M2.12718 18.4277H0.472961V19.737H2.12718V18.4277Z" fill="#407BFF"/>
<path opacity="0.4" d="M12.7062 0H0.472961V21.7414H12.7062V0Z" fill="#407BFF"/>
<path opacity="0.4" d="M5.97019 0H5.77335V21.7414H5.97019V0Z" fill="#407BFF"/>
<path d="M57.493 21.7412H0.296078C0.132508 21.7412 -9.15527e-05 21.8738 -9.15527e-05 22.0374V22.953C-9.15527e-05 23.1165 0.132508 23.2491 0.296078 23.2491H57.493C57.6566 23.2491 57.7892 23.1165 57.7892 22.953V22.0374C57.7892 21.8738 57.6566 21.7412 57.493 21.7412Z" fill="#263238"/>
<path d="M48.4507 27.4584C50.5831 27.4584 52.3117 25.7298 52.3117 23.5974C52.3117 21.465 50.5831 19.7363 48.4507 19.7363C46.3183 19.7363 44.5896 21.465 44.5896 23.5974C44.5896 25.7298 46.3183 27.4584 48.4507 27.4584Z" fill="#263238"/>
<path d="M48.4509 26.0832C49.8232 26.0832 50.9358 24.9706 50.9358 23.5982C50.9358 22.2258 49.8232 21.1133 48.4509 21.1133C47.0785 21.1133 45.9659 22.2258 45.9659 23.5982C45.9659 24.9706 47.0785 26.0832 48.4509 26.0832Z" fill="white"/>
<path d="M20.311 27.4584C22.4434 27.4584 24.172 25.7298 24.172 23.5974C24.172 21.465 22.4434 19.7363 20.311 19.7363C18.1786 19.7363 16.4499 21.465 16.4499 23.5974C16.4499 25.7298 18.1786 27.4584 20.311 27.4584Z" fill="#263238"/>
<path d="M20.311 26.0832C21.6834 26.0832 22.7959 24.9706 22.7959 23.5982C22.7959 22.2258 21.6834 21.1133 20.311 21.1133C18.9386 21.1133 17.826 22.2258 17.826 23.5982C17.826 24.9706 18.9386 26.0832 20.311 26.0832Z" fill="white"/>
</svg>
